# xmcd
#
# Track frame offsets: 
#        150
#        20194
#        33511
#        46759
#        61471
#        75910
#        94758
#        109506
#        123194
#        137356
#
# Disc length: 2045 seconds
#
# Revision: 0
# Processed by: cddbd v1.5.2PL0 Copyright (c) Steve Scherf et al.
# Submitted via: ExactAudioCopy v0.99pb5
#
DISCID=7307fb0a
DTITLE=Marnie Stern - Marnie Stern
DYEAR=2010
DGENRE=A Cappella
TTITLE0=For Ash
TTITLE1=Nothing Left
TTITLE2=Transparency Is the New Mystery
TTITLE3=Risky Biz
TTITLE4=Her Confidence
TTITLE5=Female Guitar Players Are the New Black
TTITLE6=Gimme
TTITLE7=Cinco de Mayo
TTITLE8=Building a Body
TTITLE9=The Things You Notice
EXTD=
EXTT0=
EXTT1=
EXTT2=
EXTT3=
EXTT4=
EXTT5=
EXTT6=
EXTT7=
EXTT8=
EXTT9=
PLAYORDER=
